<svg width="18" height="17" viewBox="0 0 18 17" fill="none" xmlns="http://www.w3.org/2000/svg">
<path d="M7.83317 9.83321L6.02067 8.02071C5.86789 7.86793 5.67678 7.79488 5.44734 7.80154C5.21789 7.80821 5.02706 7.88821 4.87484 8.04154C4.72206 8.19432 4.64567 8.38877 4.64567 8.62488C4.64567 8.86099 4.72206 9.05543 4.87484 9.20821L7.24984 11.5832C7.40261 11.736 7.59706 11.8124 7.83317 11.8124C8.06928 11.8124 8.26373 11.736 8.4165 11.5832L13.1457 6.85404C13.2984 6.70127 13.3715 6.51016 13.3648 6.28071C13.3582 6.05127 13.2782 5.86043 13.1248 5.70821C12.9721 5.55543 12.7776 5.47904 12.5415 5.47904C12.3054 5.47904 12.1109 5.55543 11.9582 5.70821L7.83317 9.83321ZM8.99984 16.6665C7.84706 16.6665 6.76373 16.4477 5.74984 16.0099C4.73595 15.5721 3.854 14.9785 3.104 14.229C2.354 13.479 1.76039 12.5971 1.32317 11.5832C0.885948 10.5693 0.667059 9.48599 0.666504 8.33321C0.666504 7.18043 0.885393 6.0971 1.32317 5.08321C1.76095 4.06932 2.35456 3.18738 3.104 2.43738C3.854 1.68738 4.73595 1.09377 5.74984 0.656545C6.76373 0.219322 7.84706 0.000433485 8.99984 -0.00012207C10.1526 -0.00012207 11.2359 0.218767 12.2498 0.656545C13.2637 1.09432 14.1457 1.68793 14.8957 2.43738C15.6457 3.18738 16.2396 4.06932 16.6773 5.08321C17.1151 6.0971 17.3337 7.18043 17.3332 8.33321C17.3332 9.48599 17.1143 10.5693 16.6765 11.5832C16.2387 12.5971 15.6451 13.479 14.8957 14.229C14.1457 14.979 13.2637 15.5729 12.2498 16.0107C11.2359 16.4485 10.1526 16.6671 8.99984 16.6665ZM8.99984 14.9999C10.8471 14.9999 12.4201 14.3507 13.719 13.0524C15.0179 11.754 15.6671 10.181 15.6665 8.33321C15.6665 6.48599 15.0173 4.91293 13.719 3.61404C12.4207 2.31516 10.8476 1.66599 8.99984 1.66654C7.15262 1.66654 5.57956 2.31571 4.28067 3.61404C2.98178 4.91238 2.33262 6.48543 2.33317 8.33321C2.33317 10.1804 2.98234 11.7535 4.28067 13.0524C5.579 14.3513 7.15206 15.0004 8.99984 14.9999Z" fill="white"/>
</svg>
