<svg
  width="51"
  height="53"
  viewBox="0 0 51 53"
  fill="none"
  xmlns="http://www.w3.org/2000/svg"
>
  <path
    d="M35.6987 29.1253H15.179C14.8535 29.1253 14.5977 28.8695 14.5977 28.5439C14.5977 28.2184 14.8535 27.9626 15.179 27.9626H35.6875C36.013 27.9626 36.2688 28.2184 36.2688 28.5439C36.2688 28.8695 36.013 29.1253 35.6992 29.1253H35.6987ZM35.6987 25.0562H15.179C14.8535 25.0562 14.5977 24.8004 14.5977 24.4748C14.5977 24.1493 14.8535 23.8935 15.179 23.8935H35.6875C36.013 23.8935 36.2688 24.1493 36.2688 24.4748C36.2688 24.8004 36.013 25.0562 35.6992 25.0562H35.6987Z"
    fill="#FAFF00"
  />
  <path
    d="M14.0276 34.415H12.7372C11.784 34.415 11.0049 33.6362 11.0049 32.6826V20.3469C11.0049 19.3937 11.7837 18.6145 12.7372 18.6145H14.0276C14.9808 18.6145 15.76 19.3933 15.76 20.3469V32.6826C15.76 33.6362 14.9925 34.415 14.0276 34.415ZM12.7372 19.7773C12.4234 19.7773 12.1676 20.0331 12.1676 20.3469V32.6939C12.1676 33.0077 12.4234 33.2636 12.7372 33.2636H14.0276C14.3415 33.2636 14.5973 33.0077 14.5973 32.6939V20.3469C14.5973 20.0331 14.3415 19.7773 14.0276 19.7773H12.7372Z"
    fill="#FAFF00"
  />
  <path
    d="M10.4349 32.1485H9.14448C8.19127 32.1485 7.41211 31.3697 7.41211 30.4161V22.6148C7.41211 21.6616 8.19088 20.8824 9.14448 20.8824H10.4349C11.3881 20.8824 12.1672 21.6612 12.1672 22.6148C12.1672 22.9403 11.9114 23.1962 11.5859 23.1962C11.2603 23.1962 11.0045 22.9403 11.0045 22.6148C11.0045 22.301 10.7487 22.0451 10.4348 22.0451L9.14447 22.0455C8.83062 22.0455 8.57479 22.3013 8.57479 22.6152V30.4165C8.57479 30.7303 8.83062 30.9861 9.14447 30.9861H10.4348C10.7487 30.9861 11.0045 30.7303 11.0045 30.4165C11.0045 30.0909 11.2603 29.8351 11.5859 29.8351C11.9114 29.8351 12.1672 30.0909 12.1672 30.4165C12.1672 31.3697 11.3884 32.1485 10.4349 32.1485Z"
    fill="#FAFF00"
  />
  <path
    d="M6.84305 30.5789H5.55268C4.59947 30.5789 3.82031 29.8001 3.82031 28.8465V24.1845C3.82031 23.2312 4.59909 22.4521 5.55268 22.4521H6.84305C7.79626 22.4521 8.57542 23.2309 8.57542 24.1845C8.57542 24.51 8.3196 24.7658 7.99407 24.7658C7.66854 24.7658 7.41272 24.51 7.41272 24.1845C7.41272 23.8706 7.15689 23.6148 6.84304 23.6148H5.55267C5.23882 23.6148 4.983 23.8706 4.983 24.1845V28.8465C4.983 29.1604 5.23882 29.4162 5.55267 29.4162H6.84304C7.15689 29.4162 7.41272 29.1604 7.41272 28.8465C7.41272 28.521 7.66854 28.2652 7.99407 28.2652C8.3196 28.2652 8.57542 28.521 8.57542 28.8465C8.57542 29.8001 7.79628 30.5789 6.84305 30.5789Z"
    fill="#FAFF00"
  />
  <path
    d="M4.4014 29.1253H1.06475C0.739222 29.1253 0.483398 28.8695 0.483398 28.5439V24.4748C0.483398 24.1493 0.739222 23.8935 1.06475 23.8935H4.4014C4.72692 23.8935 4.98275 24.1493 4.98275 24.4748C4.98275 24.8004 4.72692 25.0562 4.4014 25.0562H1.64613V27.9625H4.4014C4.72692 27.9625 4.98275 28.2184 4.98275 28.5439C4.98275 28.8694 4.72692 29.1253 4.4014 29.1253Z"
    fill="#FAFF00"
  />
  <path
    d="M35.6987 11.4531H15.179C14.8535 11.4531 14.5977 11.1973 14.5977 10.8718C14.5977 10.5462 14.8535 10.2904 15.179 10.2904H35.6875C36.013 10.2904 36.2688 10.5462 36.2688 10.8718C36.2688 11.1973 36.013 11.4531 35.6992 11.4531H35.6987ZM35.6987 7.38402H15.179C14.8535 7.38402 14.5977 7.12819 14.5977 6.80266C14.5977 6.47714 14.8535 6.22131 15.179 6.22131H35.6875C36.013 6.22131 36.2688 6.47714 36.2688 6.80266C36.2688 7.12819 36.013 7.38402 35.6992 7.38402H35.6987Z"
    fill="#FAFF00"
  />
  <path
    d="M13.6324 16.7437H11.9C10.7257 16.7437 9.77246 15.7905 9.77246 14.6162V3.05962C9.77246 1.88528 10.7257 0.932068 11.9 0.932068H13.6324C14.8067 0.932068 15.7599 1.88528 15.7599 3.05962V14.6041C15.7599 15.7897 14.8067 16.743 13.6324 16.743V16.7437ZM11.9 2.09483C11.3654 2.09483 10.9351 2.52509 10.9351 3.05971V14.6041C10.9351 15.1388 11.3654 15.569 11.9 15.569H13.6324C14.167 15.569 14.5973 15.1388 14.5973 14.6041V3.05971C14.5973 2.52507 14.167 2.09483 13.6324 2.09483H11.9Z"
    fill="#FAFF00"
  />
  <path
    d="M8.80718 13.047H7.07482C5.90047 13.047 4.94727 12.0938 4.94727 10.9195V6.75731C4.94727 5.58297 5.90047 4.62976 7.07482 4.62976H8.80718C9.98152 4.62976 10.9347 5.58297 10.9347 6.75731C10.9347 7.08284 10.6789 7.33866 10.3534 7.33866C10.0279 7.33866 9.77203 7.08284 9.77203 6.75731C9.77203 6.22267 9.34176 5.79243 8.80714 5.79243L7.07478 5.79206C6.54014 5.79206 6.10989 6.22233 6.10989 6.75695V10.9074C6.10989 11.442 6.54016 11.8723 7.07478 11.8723H8.80714C9.34178 11.8723 9.77203 11.442 9.77203 10.9074C9.77203 10.5819 10.0279 10.3261 10.3534 10.3261C10.6789 10.3261 10.9347 10.5819 10.9347 10.9074C10.9347 12.0934 9.98152 13.047 8.80718 13.047Z"
    fill="#FAFF00"
  />
  <path
    d="M38.9781 16.7437H37.2457C36.0714 16.7437 35.1182 15.7905 35.1182 14.6162V3.05962C35.1182 1.88528 36.0714 0.932068 37.2457 0.932068H38.9781C40.1524 0.932068 41.1056 1.88528 41.1056 3.05962V14.6041C41.1056 15.7897 40.1524 16.743 38.9781 16.743V16.7437ZM37.2457 2.09483C36.7111 2.09483 36.2808 2.52509 36.2808 3.05971V14.6041C36.2808 15.1388 36.7111 15.569 37.2457 15.569H38.9781C39.5127 15.569 39.943 15.1388 39.943 14.6041V3.05971C39.943 2.52507 39.5127 2.09483 38.9781 2.09483H37.2457Z"
    fill="#FAFF00"
  />
  <path
    d="M43.814 13.047H42.0817C40.9073 13.047 39.9541 12.0938 39.9541 10.9195C39.9541 10.5939 40.2099 10.3381 40.5355 10.3381C40.861 10.3381 41.1168 10.5939 41.1168 10.9195C41.1168 11.4541 41.5471 11.8843 42.0817 11.8843H43.8141C44.3487 11.8843 44.7789 11.4541 44.7789 10.9195V6.75731C44.7789 6.22267 44.3487 5.79243 43.8141 5.79243H42.0817C41.5471 5.79243 41.1168 6.22269 41.1168 6.75731C41.1168 7.08284 40.861 7.33866 40.5355 7.33866C40.2099 7.33866 39.9541 7.08284 39.9541 6.75731C39.9541 5.58297 40.9073 4.62976 42.0817 4.62976H43.814C44.9884 4.62976 45.9416 5.58297 45.9416 6.75731V10.9078C45.9416 12.0934 44.988 13.047 43.814 13.047Z"
    fill="#FAFF00"
  />
  <path
    d="M35.6987 46.8086H15.179C14.8535 46.8086 14.5977 46.5528 14.5977 46.2272C14.5977 45.9017 14.8535 45.6459 15.179 45.6459H35.6875C36.013 45.6459 36.2688 45.9017 36.2688 46.2272C36.2688 46.5528 36.013 46.8086 35.6992 46.8086H35.6987ZM35.6987 42.7391H15.179C14.8535 42.7391 14.5977 42.4833 14.5977 42.1578C14.5977 41.8322 14.8535 41.5764 15.179 41.5764H35.6875C36.013 41.5764 36.2688 41.8322 36.2688 42.1578C36.2688 42.4837 36.013 42.7391 35.6992 42.7391H35.6987Z"
    fill="#FAFF00"
  />
  <path
    d="M13.6324 52.0983H11.9C10.7257 52.0983 9.77246 51.1451 9.77246 49.9708V38.4263C9.77246 37.252 10.7257 36.2988 11.9 36.2988H13.6324C14.8067 36.2988 15.7599 37.252 15.7599 38.4263V49.9708C15.7599 51.1451 14.8067 52.0983 13.6324 52.0983ZM11.9 37.4494C11.3654 37.4494 10.9351 37.8796 10.9351 38.4143V49.9587C10.9351 50.4933 11.3654 50.9236 11.9 50.9236H13.6324C14.167 50.9236 14.5973 50.4933 14.5973 49.9587V38.4143C14.5973 37.8796 14.167 37.4494 13.6324 37.4494H11.9Z"
    fill="#FAFF00"
  />
  <path
    d="M8.80718 48.4015H7.07482C5.90047 48.4015 4.94727 47.4483 4.94727 46.274V42.1235C4.94727 40.9492 5.90047 39.996 7.07482 39.996H8.80718C9.98152 39.996 10.9347 40.9492 10.9347 42.1235C10.9347 42.4491 10.6789 42.7049 10.3534 42.7049C10.0279 42.7049 9.77203 42.4491 9.77203 42.1235C9.77203 41.5889 9.34176 41.1586 8.80714 41.1586H7.07478C6.54014 41.1586 6.10989 41.5889 6.10989 42.1235V46.274C6.10989 46.8086 6.54016 47.2389 7.07478 47.2389H8.80714C9.34178 47.2389 9.77203 46.8086 9.77203 46.274C9.77203 45.9485 10.0279 45.6926 10.3534 45.6926C10.6789 45.6926 10.9347 45.9485 10.9347 46.274C10.9347 47.4483 9.98152 48.4015 8.80718 48.4015Z"
    fill="#FAFF00"
  />
  <path
    d="M38.9781 52.0983H37.2457C36.0714 52.0983 35.1182 51.1451 35.1182 49.9708V38.4263C35.1182 37.252 36.0714 36.2988 37.2457 36.2988H38.9781C40.1524 36.2988 41.1056 37.252 41.1056 38.4263V49.9708C41.1056 51.1451 40.1524 52.0983 38.9781 52.0983ZM37.2457 37.4494C36.7111 37.4494 36.2808 37.8796 36.2808 38.4143V49.9587C36.2808 50.4933 36.7111 50.9236 37.2457 50.9236H38.9781C39.5127 50.9236 39.943 50.4933 39.943 49.9587V38.4143C39.943 37.8796 39.5127 37.4494 38.9781 37.4494H37.2457Z"
    fill="#FAFF00"
  />
  <path
    d="M43.814 48.4015H42.0817C40.9073 48.4015 39.9541 47.4483 39.9541 46.274C39.9541 45.9485 40.2099 45.6926 40.5355 45.6926C40.861 45.6926 41.1168 45.9485 41.1168 46.274C41.1168 46.8086 41.5471 47.2389 42.0817 47.2389H43.8141C44.3487 47.2389 44.7789 46.8086 44.7789 46.274V42.1235C44.7789 41.5889 44.3487 41.1586 43.8141 41.1586H42.0817C41.5471 41.1586 41.1168 41.5889 41.1168 42.1235C41.1168 42.4491 40.861 42.7049 40.5355 42.7049C40.2099 42.7049 39.9541 42.4491 39.9541 42.1235C39.9541 40.9492 40.9073 39.996 42.0817 39.996H43.814C44.9884 39.996 45.9416 40.9492 45.9416 42.1235V46.274C45.9416 47.4483 44.988 48.4015 43.814 48.4015Z"
    fill="#FAFF00"
  />
  <path
    d="M38.1409 34.415H36.8505C35.8973 34.415 35.1182 33.6362 35.1182 32.6826V20.3469C35.1182 19.3937 35.8969 18.6145 36.8505 18.6145H38.1409C39.0941 18.6145 39.8733 19.3933 39.8733 20.3469V32.6826C39.8733 33.6362 39.0945 34.415 38.1409 34.415ZM36.8505 19.7773C36.5367 19.7773 36.2809 20.0331 36.2809 20.3469V32.6939C36.2809 33.0077 36.5367 33.2636 36.8505 33.2636H38.1409C38.4548 33.2636 38.7106 33.0077 38.7106 32.6939V20.3469C38.7106 20.0331 38.4548 19.7773 38.1409 19.7773H36.8505Z"
    fill="#FAFF00"
  />
  <path
    d="M41.7327 32.1485H40.4423C39.4891 32.1485 38.71 31.3697 38.71 30.4161C38.71 30.0906 38.9658 29.8348 39.2913 29.8348C39.6168 29.8348 39.8727 30.0906 39.8727 30.4161C39.8727 30.73 40.1285 30.9858 40.4423 30.9858H41.7327C42.0466 30.9858 42.3024 30.73 42.3024 30.4161V22.6148C42.3024 22.301 42.0466 22.0451 41.7327 22.0451H40.4423C40.1285 22.0451 39.8727 22.301 39.8727 22.6148C39.8727 22.9403 39.6168 23.1962 39.2913 23.1962C38.9658 23.1962 38.71 22.9403 38.71 22.6148C38.71 21.6616 39.4887 20.8824 40.4423 20.8824H41.7327C42.6859 20.8824 43.4651 21.6612 43.4651 22.6148V30.4161C43.4651 31.3697 42.6863 32.1485 41.7327 32.1485Z"
    fill="#FAFF00"
  />
  <path
    d="M45.3245 30.5789H44.0341C43.0809 30.5789 42.3018 29.8001 42.3018 28.8465C42.3018 28.521 42.5576 28.2652 42.8831 28.2652C43.2086 28.2652 43.4645 28.521 43.4645 28.8465C43.4645 29.1604 43.7203 29.4162 44.0341 29.4162H45.3245C45.6384 29.4162 45.8942 29.1604 45.8942 28.8465V24.1845C45.8942 23.8706 45.6384 23.6148 45.3245 23.6148H44.0341C43.7203 23.6148 43.4645 23.8706 43.4645 24.1845C43.4645 24.51 43.2086 24.7658 42.8831 24.7658C42.5576 24.7658 42.3018 24.51 42.3018 24.1845C42.3018 23.2312 43.0805 22.4521 44.0341 22.4521H45.3245C46.2777 22.4521 47.0569 23.2309 47.0569 24.1845V28.8465C47.0569 29.8001 46.2781 30.5789 45.3245 30.5789Z"
    fill="#FAFF00"
  />
  <path
    d="M49.8125 29.1252H46.4759C46.1504 29.1252 45.8945 28.8694 45.8945 28.5439C45.8945 28.2184 46.1504 27.9625 46.4759 27.9625H49.2312V25.0562H46.4759C46.1504 25.0562 45.8945 24.8004 45.8945 24.4748C45.8945 24.1493 46.1504 23.8935 46.4759 23.8935H49.8125C50.1381 23.8935 50.3939 24.1493 50.3939 24.4748V28.5439C50.3939 28.8695 50.1381 29.1252 49.8125 29.1252Z"
    fill="#FAFF00"
  />
</svg>
