<svg width="40" height="40" viewBox="0 0 40 40" fill="none" xmlns="http://www.w3.org/2000/svg">
<path d="M20 16.25C19.2583 16.25 18.5333 16.4699 17.9166 16.882C17.2999 17.294 16.8193 17.8797 16.5355 18.5649C16.2516 19.2502 16.1774 20.0042 16.3221 20.7316C16.4668 21.459 16.8239 22.1272 17.3483 22.6517C17.8728 23.1761 18.541 23.5333 19.2684 23.6779C19.9958 23.8226 20.7498 23.7484 21.4351 23.4645C22.1203 23.1807 22.706 22.7001 23.118 22.0834C23.5301 21.4667 23.75 20.7417 23.75 20C23.749 19.0058 23.3535 18.0525 22.6505 17.3495C21.9475 16.6465 20.9942 16.251 20 16.25ZM20 22.5C19.5055 22.5 19.0222 22.3534 18.6111 22.0787C18.2 21.804 17.8795 21.4135 17.6903 20.9567C17.5011 20.4999 17.4516 19.9972 17.548 19.5123C17.6445 19.0273 17.8826 18.5819 18.2322 18.2322C18.5819 17.8826 19.0273 17.6445 19.5123 17.548C19.9972 17.4516 20.4999 17.5011 20.9567 17.6903C21.4135 17.8795 21.804 18.2 22.0787 18.6111C22.3534 19.0222 22.5 19.5055 22.5 20C22.5 20.663 22.2366 21.2989 21.7678 21.7678C21.2989 22.2366 20.663 22.5 20 22.5ZM23.75 11.875H16.25C15.0901 11.8762 13.978 12.3376 13.1578 13.1578C12.3376 13.978 11.8762 15.0901 11.875 16.25V23.75C11.8762 24.9099 12.3376 26.022 13.1578 26.8422C13.978 27.6624 15.0901 28.1238 16.25 28.125H23.75C24.9099 28.1238 26.022 27.6624 26.8422 26.8422C27.6624 26.022 28.1238 24.9099 28.125 23.75V16.25C28.1238 15.0901 27.6624 13.978 26.8422 13.1578C26.022 12.3376 24.9099 11.8762 23.75 11.875ZM26.875 23.75C26.875 24.5788 26.5458 25.3737 25.9597 25.9597C25.3737 26.5458 24.5788 26.875 23.75 26.875H16.25C15.4212 26.875 14.6263 26.5458 14.0403 25.9597C13.4542 25.3737 13.125 24.5788 13.125 23.75V16.25C13.125 15.4212 13.4542 14.6263 14.0403 14.0403C14.6263 13.4542 15.4212 13.125 16.25 13.125H23.75C24.5788 13.125 25.3737 13.4542 25.9597 14.0403C26.5458 14.6263 26.875 15.4212 26.875 16.25V23.75ZM25 15.9375C25 16.1229 24.945 16.3042 24.842 16.4583C24.739 16.6125 24.5926 16.7327 24.4213 16.8036C24.25 16.8746 24.0615 16.8932 23.8796 16.857C23.6977 16.8208 23.5307 16.7315 23.3996 16.6004C23.2685 16.4693 23.1792 16.3023 23.143 16.1204C23.1068 15.9385 23.1254 15.75 23.1964 15.5787C23.2673 15.4074 23.3875 15.261 23.5417 15.158C23.6958 15.055 23.8771 15 24.0625 15C24.3111 15 24.5496 15.0988 24.7254 15.2746C24.9012 15.4504 25 15.6889 25 15.9375Z" fill="white"/>
<circle cx="20" cy="20" r="19.5" stroke="white"/>
<circle cx="20" cy="20" r="19.5" stroke="white"/>
<circle cx="20" cy="20" r="19.5" stroke="white"/>
</svg>
