<svg
  width="44"
  height="44"
  viewBox="0 0 44 44"
  fill="none"
  xmlns="http://www.w3.org/2000/svg"
>
  <path
    d="M6.01906 43.5696H6.01116C3.60935 43.5696 1.65527 41.6158 1.65527 39.214V25.3086C1.65527 24.8071 2.06156 24.4008 2.56303 24.4008H9.46687C9.96831 24.4008 10.3746 24.8071 10.3746 25.3086V39.2149C10.3746 41.6163 8.42089 43.5701 6.01908 43.5701L6.01906 43.5696ZM3.47077 26.216V39.2145C3.47077 40.6148 4.61031 41.7543 6.01122 41.7543H6.01912C7.4197 41.7543 8.55924 40.6148 8.55924 39.2142V26.2165L3.47077 26.216Z"
    fill="#FAFF00"
  />
  <path
    d="M8.10304 26.216H3.92534C3.4239 26.216 3.01758 25.8097 3.01758 25.3082V22.4942C3.01758 21.493 3.8318 20.6788 4.83301 20.6788H7.19528C8.19651 20.6788 9.01071 21.493 9.01071 22.4942V25.3082C9.01071 25.8094 8.60452 26.216 8.10304 26.216ZM4.83301 24.4006H7.19528V22.4943H4.83301V24.4006Z"
    fill="#FAFF00"
  />
  <path
    d="M39.3677 26.216H35.19C34.6886 26.216 34.2822 25.8097 34.2822 25.3082V22.4942C34.2822 21.493 35.0964 20.6788 36.0977 20.6788H38.4599C39.4612 20.6788 40.2754 21.493 40.2754 22.4942V25.3082C40.2754 25.8094 39.8688 26.216 39.3677 26.216ZM36.0977 24.4006H38.4599V22.4943H36.0977V24.4006Z"
    fill="#FAFF00"
  />
  <path
    d="M37.284 43.5696H37.2755C34.8737 43.5696 32.9199 41.6158 32.9199 39.214V25.3086C32.9199 24.8071 33.3262 24.4008 33.8277 24.4008H40.7315C41.233 24.4008 41.6393 24.8071 41.6393 25.3086V39.2149C41.6393 41.6163 39.6855 43.5701 37.2841 43.5701L37.284 43.5696ZM34.7354 26.216V39.2145C34.7354 40.6148 35.8749 41.7543 37.2755 41.7543H37.2841C38.6847 41.7543 39.8242 40.6148 39.8242 39.2142L39.8239 26.2165L34.7354 26.216Z"
    fill="#FAFF00"
  />
  <path
    d="M11.1215 26.216H0.907758C0.406325 26.216 0 25.8097 0 25.3082C0 24.8067 0.406283 24.4005 0.907758 24.4005H11.1215C11.6229 24.4005 12.0293 24.8067 12.0293 25.3082C12.0293 25.8093 11.623 26.216 11.1215 26.216Z"
    fill="#FAFF00"
  />
  <path
    d="M42.3863 26.216H32.1734C31.672 26.216 31.2656 25.8097 31.2656 25.3082C31.2656 24.8067 31.6719 24.4005 32.1734 24.4005H42.3863C42.8877 24.4005 43.294 24.8067 43.294 25.3082C43.294 25.8093 42.8878 26.216 42.3866 26.216H42.3863Z"
    fill="#FAFF00"
  />
  <path
    d="M21.9011 31.601C19.2306 31.601 17.0586 29.4289 17.0586 26.7585V6.88311C17.0586 4.08853 14.7849 1.81543 11.9906 1.81543C9.19604 1.81543 6.92294 4.08853 6.92294 6.88311V21.5859C6.92294 22.0873 6.51665 22.4937 6.01518 22.4937C5.5137 22.4937 5.10742 22.0874 5.10742 21.5859V6.88311C5.10742 3.08798 8.1954 0 11.9905 0C15.786 0 18.874 3.08798 18.874 6.88311V26.7585C18.874 28.4278 20.2321 29.7856 21.901 29.7856C23.5706 29.7856 24.9287 28.4275 24.9287 26.7585V14.8683C24.9287 11.2128 27.9027 8.23876 31.5583 8.23876C35.2139 8.23876 38.1879 11.2128 38.1879 14.8683L38.1875 21.5862C38.1875 22.0876 37.7813 22.4939 37.2798 22.4939C36.7783 22.4939 36.372 22.0876 36.372 21.5862V14.8683C36.372 12.214 34.2122 10.0542 31.5579 10.0542C28.9036 10.0542 26.7437 12.214 26.7437 14.8683V26.7585C26.7437 29.429 24.5714 31.6013 21.9009 31.6013L21.9011 31.601Z"
    fill="#FAFF00"
  />
  <path
    d="M9.4659 34.8932H2.56205C2.06062 34.8932 1.6543 34.4869 1.6543 33.9855C1.6543 33.484 2.06058 33.0777 2.56205 33.0777H9.4659C9.96733 33.0777 10.3737 33.484 10.3737 33.9855C10.3737 34.4866 9.96704 34.8932 9.4659 34.8932Z"
    fill="#FAFF00"
  />
  <path
    d="M9.4659 30.9082H2.56205C2.06062 30.9082 1.6543 30.5019 1.6543 30.0004C1.6543 29.4989 2.06058 29.0927 2.56205 29.0927H9.4659C9.96733 29.0927 10.3737 29.4989 10.3737 30.0004C10.3737 30.5019 9.96704 30.9082 9.4659 30.9082Z"
    fill="#FAFF00"
  />
  <path
    d="M9.4659 38.8774H2.56205C2.06062 38.8774 1.6543 38.4711 1.6543 37.9696C1.6543 37.4682 2.06058 37.0619 2.56205 37.0619H9.4659C9.96733 37.0619 10.3737 37.4682 10.3737 37.9696C10.3737 38.4711 9.96704 38.8774 9.4659 38.8774Z"
    fill="#FAFF00"
  />
  <path
    d="M40.7315 34.8932H33.8277C33.3262 34.8932 32.9199 34.4869 32.9199 33.9855C32.9199 33.484 33.3262 33.0777 33.8277 33.0777H40.7315C41.233 33.0777 41.6393 33.484 41.6393 33.9855C41.6393 34.4866 41.233 34.8932 40.7315 34.8932Z"
    fill="#FAFF00"
  />
  <path
    d="M40.7315 30.9082H33.8277C33.3262 30.9082 32.9199 30.5019 32.9199 30.0004C32.9199 29.4989 33.3262 29.0927 33.8277 29.0927H40.7315C41.233 29.0927 41.6393 29.4989 41.6393 30.0004C41.6393 30.5019 41.233 30.9082 40.7315 30.9082Z"
    fill="#FAFF00"
  />
  <path
    d="M40.7315 38.8774H33.8277C33.3262 38.8774 32.9199 38.4711 32.9199 37.9696C32.9199 37.4682 33.3262 37.0619 33.8277 37.0619H40.7315C41.233 37.0619 41.6393 37.4682 41.6393 37.9696C41.6393 38.4711 41.233 38.8774 40.7315 38.8774Z"
    fill="#FAFF00"
  />
</svg>
