<svg
  width="42"
  height="52"
  viewBox="0 0 42 52"
  fill="none"
  xmlns="http://www.w3.org/2000/svg"
>
  <path
    d="M41.4864 6.70964L34.9442 0.0014977L32.6364 0L0.25 32.356V33.8959L1.54742 35.2259L0.25 36.5562V38.9113L12.1641 52H14.4946L21.5173 44.7987V42.4495L14.4478 34.4769L41.4864 6.70964ZM1.8861 33.2014V33.064L6.44618 28.508L10.3052 32.4649L11.4616 31.2791L7.61796 27.3379L8.93248 26.0252L11.1238 28.2721L12.2802 27.0863L10.1046 24.8555L11.4192 23.5428L15.2147 27.4346L16.3711 26.2488L12.5913 22.3731L13.9058 21.0604L16.0333 23.2418L17.1897 22.0561L15.0776 19.8904L16.3921 18.5777L20.1237 22.4039L21.2802 21.2181L17.5643 17.408L18.8788 16.0953L20.9427 18.2115L22.0991 17.0257L20.051 14.9256L21.3655 13.6129L25.0331 17.3736L26.1896 16.1878L22.5373 12.4428L23.8518 11.1301L25.8518 13.1809L27.0083 11.9951L25.024 9.96042L26.3385 8.64772L29.9423 12.3429L31.0987 11.1571L27.5041 7.46902L28.8186 6.15632L30.7547 8.14153L31.9111 6.95573L29.9897 4.98548L31.3042 3.67278L34.8444 7.30282L36.0008 6.11702L32.4756 2.50233L33.2997 1.67784H34.2667L39.1729 6.7101L13.0311 33.5574L4.03357 32.6768L2.70334 34.0408L1.8861 33.2014ZM1.8861 37.2504L4.64593 34.4205L11.534 35.0949L5.06294 41.7401L1.8861 38.2501V37.2504ZM19.8811 43.0989V44.1046L13.8169 50.3226H12.8756L6.18079 42.9679L13.2911 35.6651L19.8811 43.0989Z"
    fill="#FAFF00"
  />
</svg>
