<svg width="20" height="20" viewBox="0 0 20 20" fill="none" xmlns="http://www.w3.org/2000/svg">
<path d="M4.64264 6.57257C4.40389 5.00007 5.51264 3.58757 7.20639 3.07007C7.50696 2.97818 7.83126 3.00433 8.11321 3.14322C8.39517 3.28211 8.61356 3.52327 8.72389 3.81757L9.26764 5.26757C9.35517 5.50084 9.371 5.75494 9.31309 5.99727C9.25519 6.23959 9.12618 6.45909 8.94264 6.62757L7.32514 8.10882C7.24541 8.18199 7.186 8.27457 7.1527 8.37753C7.1194 8.48049 7.11335 8.59033 7.13514 8.69632L7.15014 8.76132L7.18889 8.92382C7.39005 9.71338 7.69655 10.4723 8.10014 11.1801C8.53978 11.9322 9.08537 12.6171 9.72014 13.2138L9.77014 13.2588C9.85089 13.3305 9.94883 13.38 10.0544 13.4026C10.16 13.4252 10.2696 13.42 10.3726 13.3876L12.4639 12.7288C12.7016 12.6542 12.9561 12.6523 13.1949 12.7233C13.4336 12.7944 13.6457 12.9352 13.8039 13.1276L14.7939 14.3288C15.2064 14.8288 15.1564 15.5638 14.6826 16.0051C13.3864 17.2138 11.6039 17.4613 10.3639 16.4651C8.84393 15.239 7.56258 13.7437 6.58389 12.0538C5.59725 10.3652 4.93947 8.50561 4.64264 6.57257ZM8.44639 8.77882L9.78639 7.54882C10.1537 7.21199 10.4119 6.77308 10.528 6.28842C10.644 5.80376 10.6126 5.29547 10.4376 4.82882L9.89514 3.37882C9.67307 2.78663 9.23356 2.3014 8.66616 2.022C8.09876 1.74259 7.44618 1.69005 6.84139 1.87507C4.73764 2.51882 3.04889 4.40507 3.40639 6.76132C3.65639 8.40632 4.23264 10.4988 5.50389 12.6838C6.55978 14.5059 7.94196 16.1182 9.58139 17.4401C11.4414 18.9338 13.9239 18.4238 15.5364 16.9213C15.9978 16.4917 16.2778 15.9022 16.3194 15.2732C16.361 14.6441 16.161 14.0229 15.7601 13.5363L14.7701 12.3338C14.4534 11.9494 14.0291 11.6684 13.5516 11.5267C13.0741 11.3851 12.5652 11.3893 12.0901 11.5388L10.3539 12.0851C9.9056 11.6229 9.51294 11.1098 9.18389 10.5563C8.86604 9.99677 8.61835 9.4002 8.44639 8.78007V8.77882Z" fill="white"/>
</svg>
