<svg
  width="49"
  height="48"
  viewBox="0 0 49 48"
  fill="none"
  xmlns="http://www.w3.org/2000/svg"
>
  <path
    d="M48.0112 23.7237C48.0112 29.9727 45.5288 35.966 41.1099 40.3848C36.6911 44.8036 30.698 47.2858 24.4488 47.2858C18.1997 47.2858 12.2066 44.8037 7.78774 40.3848C3.36892 35.966 0.886719 29.9728 0.886719 23.7237C0.886719 17.4746 3.36883 11.4814 7.78774 7.0626C12.2066 2.64378 18.1997 0.161316 24.4488 0.161316C24.8556 0.161316 25.185 0.491058 25.185 0.897842C25.185 1.30428 24.8556 1.63403 24.4488 1.63403C19.4479 1.633 14.5952 3.32862 10.6822 6.44319C6.77013 9.5581 4.03012 13.9081 2.91082 18.7819C1.79117 23.6558 2.35817 28.7652 4.51916 33.2752C6.67975 37.7851 10.3066 41.4284 14.8067 43.61C19.3067 45.7912 24.4139 46.3815 29.2921 45.2841C34.1711 44.1866 38.5338 41.4665 41.6659 37.5685C44.7986 33.6704 46.5161 28.825 46.5377 23.8247C46.5593 18.8237 44.8839 13.9632 41.7853 10.0387L41.5915 11.9792C41.5539 12.3555 41.2375 12.6421 40.8595 12.6425C40.8355 12.6425 40.8105 12.6425 40.7855 12.6387C40.3808 12.5979 40.0856 12.237 40.126 11.8327L40.4941 8.15103H40.4944C40.5348 7.74664 40.8954 7.45148 41.2998 7.49155L44.9783 7.8593C45.3831 7.90005 45.6782 8.26095 45.6375 8.66568C45.5967 9.07007 45.2358 9.36523 44.8311 9.32448L42.9485 9.1365H42.9488C46.2326 13.2893 48.0165 18.43 48.0107 23.7245L48.0112 23.7237ZM24.4488 6.06243C29.1327 6.06243 33.6248 7.92314 36.9365 11.2353C40.2483 14.5474 42.1094 19.0395 42.1094 23.723C42.1094 28.4065 40.2487 32.899 36.9365 36.2107C33.6244 39.5224 29.1323 41.3836 24.4488 41.3836C19.7654 41.3836 15.2728 39.5229 11.9611 36.2107C8.64942 32.8986 6.78827 28.4065 6.78827 23.723C6.79341 19.0405 8.65617 14.5514 11.9669 11.2405C15.2777 7.92971 19.7667 6.06699 24.4494 6.0619L24.4488 6.06243ZM33.4898 13.6434L35.3553 11.7732C32.565 9.21565 28.9638 7.72135 25.1826 7.55156V10.2025C25.1826 10.6093 24.8529 10.9387 24.4464 10.9387C24.0396 10.9387 23.7099 10.6093 23.7099 10.2025V7.55156C19.929 7.7214 16.3278 9.21565 13.5372 11.7732L15.4075 13.6431C15.6951 13.9307 15.6951 14.3971 15.4075 14.6847C15.1199 14.9723 14.6535 14.9723 14.3659 14.6847L12.496 12.8144C9.93845 15.6048 8.44415 19.2059 8.27436 22.9871H10.9253C11.3317 22.9871 11.6615 23.3165 11.6615 23.7233C11.6615 24.1301 11.3317 24.4595 10.9253 24.4595H8.27436C8.44419 28.2408 9.93845 31.8419 12.496 34.6321L14.3659 32.7667C14.5032 32.6249 14.6915 32.5438 14.8891 32.5424C15.0866 32.5407 15.2767 32.6184 15.416 32.7581C15.5558 32.8979 15.6331 33.0879 15.6314 33.2855C15.6297 33.4827 15.5486 33.6714 15.4065 33.8083L13.5372 35.6738C16.3272 38.2313 19.928 39.7259 23.709 39.8954V37.2448C23.709 36.838 24.0388 36.5082 24.4452 36.5082C24.852 36.5082 25.1818 36.838 25.1818 37.2448V39.8954C28.963 39.7255 32.5638 38.2313 35.3544 35.6738L33.489 33.8083H33.4893C33.2017 33.5207 33.2017 33.0543 33.4893 32.7667C33.7769 32.479 34.2433 32.4791 34.531 32.7667L36.3964 34.6321H36.3961C38.9536 31.8418 40.4482 28.2407 40.6177 24.4594H37.9671C37.5603 24.4594 37.2309 24.13 37.2309 23.7233C37.2309 23.3165 37.5603 22.9871 37.9671 22.9871H40.6177C40.4482 19.2058 38.9539 15.605 36.3961 12.8153L34.5306 14.6845H34.531C34.242 14.9636 33.7828 14.9598 33.4986 14.6759C33.2144 14.3921 33.2103 13.9329 33.4894 13.6436L33.4898 13.6434ZM29.7439 27.9772V27.9775C30.0315 28.2652 30.0315 28.7312 29.7439 29.0188C29.4559 29.3064 28.9899 29.3061 28.7023 29.0185L25.3815 25.6977C24.8408 25.9535 24.2194 25.9765 23.6612 25.7614C23.1034 25.5464 22.658 25.1119 22.4292 24.5592C22.2005 24.0069 22.2083 23.3848 22.4508 22.8379C22.6932 22.2914 23.1493 21.8682 23.7126 21.6672V14.4748C23.7126 14.068 24.042 13.7383 24.4488 13.7383C24.8556 13.7383 25.185 14.068 25.185 14.4748V21.6672C25.7657 21.8744 26.2314 22.3178 26.467 22.8872C26.7029 23.4567 26.6871 24.0994 26.4231 24.6565L29.7439 27.9772ZM24.4488 24.4353C24.7368 24.4353 24.9964 24.2617 25.1063 23.9956C25.2165 23.7299 25.1556 23.4238 24.9522 23.2201C24.7484 23.0167 24.4423 22.9557 24.1766 23.066C23.9106 23.1759 23.737 23.4354 23.737 23.7234C23.7376 24.1162 24.0561 24.4346 24.4488 24.4353Z"
    fill="#FAFF00"
  />
</svg>
