<svg width="40" height="40" viewBox="0 0 40 40" fill="none" xmlns="http://www.w3.org/2000/svg">
<path d="M29.3272 15.386C29.2799 15.2718 29.1999 15.1742 29.0971 15.1055C28.9943 15.0368 28.8735 15.0001 28.7499 15.0001H26.3725C26.0401 14.4346 25.5671 13.9647 24.9994 13.6362C24.4317 13.3076 23.7886 13.1315 23.1327 13.1251C22.644 13.1187 22.159 13.2101 21.7062 13.3939C21.2534 13.5777 20.8419 13.8502 20.496 14.1954C20.1399 14.5448 19.8573 14.9618 19.6648 15.422C19.4723 15.8822 19.3737 16.3762 19.3749 16.8751V17.3509C16.2296 16.5212 13.6569 13.9626 13.6296 13.9352C13.5457 13.8506 13.4394 13.7918 13.3233 13.7655C13.2071 13.7393 13.0858 13.7469 12.9738 13.7872C12.8617 13.8276 12.7635 13.8992 12.6908 13.9935C12.618 14.0878 12.5738 14.201 12.5632 14.3196C12.2264 18.0532 13.3108 20.5516 14.2819 21.9899C14.7554 22.7009 15.3314 23.338 15.9913 23.8805C14.8014 25.2501 12.928 25.9696 12.9077 25.9774C12.8195 26.0104 12.7399 26.063 12.6749 26.1311C12.6098 26.1992 12.561 26.2811 12.5321 26.3708C12.5032 26.4604 12.4949 26.5554 12.5078 26.6487C12.5208 26.7419 12.5547 26.8311 12.6069 26.9094C12.6655 26.9969 12.8999 27.304 13.4725 27.5907C14.1803 27.9454 15.1155 28.1251 16.2499 28.1251C21.771 28.1251 26.3843 23.8735 26.8553 18.4032L29.1921 16.0673C29.2794 15.9798 29.3389 15.8684 29.363 15.7471C29.387 15.6259 29.3746 15.5002 29.3272 15.386ZM25.8116 17.6837C25.7044 17.7911 25.64 17.9338 25.6303 18.0852C25.3124 23.0141 21.1936 26.8751 16.2499 26.8751C15.4249 26.8751 14.8436 26.7657 14.4358 26.6344C15.335 26.1462 16.5889 25.3063 17.3952 24.0969C17.4425 24.0258 17.4748 23.9458 17.4899 23.8617C17.5051 23.7777 17.5029 23.6914 17.4834 23.6082C17.4639 23.525 17.4276 23.4467 17.3767 23.3782C17.3258 23.3096 17.2614 23.2522 17.1874 23.2094C17.1507 23.1884 13.7569 21.1516 13.7499 15.7094C14.9999 16.7251 17.285 18.3009 19.896 18.7399C19.9855 18.755 20.0771 18.7504 20.1647 18.7265C20.2522 18.7026 20.3335 18.6599 20.4029 18.6014C20.4722 18.5428 20.528 18.4699 20.5664 18.3877C20.6047 18.3054 20.6247 18.2158 20.6249 18.1251V16.8751C20.6242 16.5417 20.6902 16.2115 20.819 15.904C20.9478 15.5965 21.1368 15.3178 21.3749 15.0844C21.6031 14.8558 21.8749 14.6752 22.1741 14.5533C22.4734 14.4315 22.794 14.3709 23.1171 14.3751C24.1061 14.3876 25.0303 14.9907 25.4171 15.8759C25.4658 15.9871 25.5459 16.0818 25.6476 16.1483C25.7494 16.2147 25.8682 16.2501 25.9897 16.2501H27.2397L25.8116 17.6837Z" fill="white"/>
<circle cx="20" cy="20" r="19.5" stroke="white"/>
<circle cx="20" cy="20" r="19.5" stroke="white"/>
<circle cx="20" cy="20" r="19.5" stroke="white"/>
</svg>
