<svg width="40" height="40" viewBox="0 0 40 40" fill="none" xmlns="http://www.w3.org/2000/svg">
<path d="M22.8469 19.4797L19.0969 16.9797C19.0027 16.9169 18.8933 16.8808 18.7802 16.8753C18.6672 16.8699 18.5548 16.8952 18.455 16.9486C18.3552 17.002 18.2718 17.0815 18.2137 17.1786C18.1556 17.2758 18.1249 17.3868 18.125 17.5V22.5C18.1249 22.6132 18.1556 22.7243 18.2137 22.8214C18.2718 22.9185 18.3552 22.998 18.455 23.0514C18.5548 23.1048 18.6672 23.1302 18.7802 23.1247C18.8933 23.1192 19.0027 23.0831 19.0969 23.0203L22.8469 20.5203C22.9326 20.4633 23.0029 20.3859 23.0515 20.2951C23.1002 20.2044 23.1256 20.103 23.1256 20C23.1256 19.897 23.1002 19.7956 23.0515 19.7049C23.0029 19.6141 22.9326 19.5367 22.8469 19.4797ZM19.375 21.332V18.6719L21.3734 20L19.375 21.332ZM28.307 15.4313C28.2334 15.1432 28.0924 14.8769 27.8955 14.6541C27.6987 14.4313 27.4517 14.2585 27.175 14.15C24.4969 13.1156 20.2344 13.125 20 13.125C19.7656 13.125 15.5031 13.1156 12.825 14.15C12.5483 14.2585 12.3013 14.4313 12.1044 14.6541C11.9076 14.8769 11.7666 15.1432 11.693 15.4313C11.4906 16.2109 11.25 17.6359 11.25 20C11.25 22.3641 11.4906 23.7891 11.693 24.5688C11.7665 24.8569 11.9075 25.1234 12.1043 25.3464C12.3011 25.5693 12.5482 25.7422 12.825 25.8508C15.3906 26.8406 19.4062 26.875 19.9484 26.875H20.0516C20.5938 26.875 24.6117 26.8406 27.175 25.8508C27.4518 25.7422 27.6989 25.5693 27.8957 25.3464C28.0925 25.1234 28.2335 24.8569 28.307 24.5688C28.5094 23.7875 28.75 22.3641 28.75 20C28.75 17.6359 28.5094 16.2109 28.307 15.4313ZM27.0969 24.2594C27.0731 24.3552 27.0269 24.4441 26.9621 24.5186C26.8973 24.5932 26.8158 24.6513 26.7242 24.6883C24.2516 25.643 20.0461 25.6258 20.0055 25.6258H20C19.9578 25.6258 15.7555 25.6414 13.2812 24.6883C13.1897 24.6513 13.1081 24.5932 13.0434 24.5186C12.9786 24.4441 12.9324 24.3552 12.9086 24.2594C12.7188 23.5461 12.5 22.232 12.5 20C12.5 17.768 12.7188 16.4539 12.9031 15.7445C12.9265 15.6481 12.9725 15.5586 13.0373 15.4835C13.1021 15.4084 13.1838 15.3498 13.2758 15.3125C15.6602 14.3914 19.6555 14.375 19.9828 14.375H20.0039C20.0461 14.375 24.2523 14.3609 26.7227 15.3125C26.8142 15.3495 26.8958 15.4076 26.9605 15.4822C27.0253 15.5567 27.0715 15.6456 27.0953 15.7414C27.2812 16.4539 27.5 17.768 27.5 20C27.5 22.232 27.2812 23.5461 27.0969 24.2555V24.2594Z" fill="white"/>
<circle cx="20" cy="20" r="19.5" stroke="white"/>
<circle cx="20" cy="20" r="19.5" stroke="white"/>
<circle cx="20" cy="20" r="19.5" stroke="white"/>
</svg>
