<svg xmlns="http://www.w3.org/2000/svg" width="115" height="37" fill="none">
  <path
    fill="#0073E6"
    d="M11.995 12.023.753 5.441A.5.5 0 0 0 0 5.872v16.779a1.5 1.5 0 0 0 .728 1.286l3.515 2.109a.5.5 0 0 0 .757-.43v-11.27a.2.2 0 0 1 .3-.173l6.7 3.86a1 1 0 0 0 1 0l6.7-3.862a.2.2 0 0 1 .3.173v6.096a1 1 0 0 1-.477.853l-6.284 3.856a.5.5 0 0 0-.239.426v5.637a.5.5 0 0 0 .25.432l8.74 5.06a1 1 0 0 0 1.015-.007l11.51-6.906a1 1 0 0 0 .485-.857v-11.05a.5.5 0 0 0-.757-.43l-3.758 2.255a1 1 0 0 0-.485.857v5.65a.5.5 0 0 1-.243.43l-6.786 4.072a1 1 0 0 1-.962.037L17.5 28.5l7.015-4.209a1 1 0 0 0 .485-.857V5.872a.5.5 0 0 0-.753-.431l-11.242 6.582a1 1 0 0 1-1.01 0Z"
  />
  <path
    fill="#0073E6"
    d="M35 5.883v5.55a1 1 0 0 1-.486.858l-3.757 2.255a.5.5 0 0 1-.757-.43v-5.55a1 1 0 0 1 .485-.857l3.758-2.255a.5.5 0 0 1 .757.43Z"
  />
  <path
    fill="#090B0B"
    d="M50.38 28V9.8h4.498l7.566 10.504-3.328-.026L66.708 9.8h4.446V28h-4.966v-5.018c0-1.49.035-2.86.104-4.108.07-1.265.208-2.54.416-3.822l.52 1.612-5.642 7.28H59.87l-5.616-7.358.572-1.534a34.34 34.34 0 0 1 .416 3.744c.07 1.248.104 2.643.104 4.186V28H50.38Zm34.881.156c-1.768 0-3.336-.347-4.706-1.04-1.352-.693-2.409-1.655-3.172-2.886-.745-1.23-1.118-2.626-1.118-4.186V9.8h5.2v10.088c0 .763.165 1.43.494 2.002a3.43 3.43 0 0 0 1.352 1.326c.572.312 1.222.468 1.95.468.763 0 1.44-.156 2.028-.468a3.347 3.347 0 0 0 1.404-1.326c.347-.572.52-1.24.52-2.002V9.8h5.044v10.244c0 1.56-.38 2.955-1.144 4.186-.745 1.23-1.794 2.193-3.146 2.886-1.334.693-2.903 1.04-4.706 1.04ZM99.672 28v-4.316h4.186v-9.568h-4.186V9.8h13.494v4.316h-4.16v9.568h4.16V28H99.672Z"
  />
</svg>
