<?xml version="1.0" encoding="iso-8859-1"?>
<!-- Uploaded to: SVG Repo, www.svgrepo.com, Generator: SVG Repo Mixer Tools -->
<svg
  height="800px"
  width="800px"
  version="1.1"
  id="Layer_1"
  xmlns="http://www.w3.org/2000/svg"
  xmlns:xlink="http://www.w3.org/1999/xlink"
  viewBox="0 0 512 512"
  xml:space="preserve"
>
  <path
    style="fill: #ffc850"
    d="M259.605,21.498l30.231-11.424c3.372-1.274,7.167-0.673,9.98,1.581l25.222,20.207
	c1.938,1.553,4.376,2.345,6.856,2.228l32.283-1.523c3.601-0.17,7.024,1.574,9.003,4.588l17.743,27.012
	c1.363,2.076,3.436,3.582,5.832,4.237l31.173,8.527c3.477,0.951,6.193,3.667,7.144,7.144l8.527,31.173
	c0.655,2.395,2.161,4.469,4.237,5.832l27.012,17.743c3.013,1.98,4.758,5.402,4.588,9.003l-1.523,32.283
	c-0.117,2.48,0.676,4.918,2.228,6.856l20.207,25.222c2.254,2.813,2.855,6.608,1.581,9.98l-11.424,30.231
	c-0.878,2.323-0.878,4.886,0,7.209l11.424,30.231c1.274,3.372,0.673,7.167-1.581,9.98l-20.207,25.222
	c-1.553,1.938-2.345,4.376-2.228,6.856l1.523,32.283c0.17,3.601-1.574,7.024-4.588,9.003l-27.012,17.743
	c-2.076,1.363-3.582,3.436-4.237,5.832l-8.527,31.173c-0.951,3.477-3.667,6.193-7.144,7.144l-31.173,8.527
	c-2.395,0.655-4.469,2.161-5.832,4.237l-17.743,27.012c-1.98,3.013-5.402,4.758-9.003,4.588l-32.283-1.523
	c-2.48-0.117-4.918,0.676-6.856,2.228l-25.222,20.207c-2.813,2.254-6.608,2.855-9.98,1.581l-30.231-11.424
	c-2.323-0.878-4.886-0.878-7.209,0l-30.231,11.424c-3.372,1.274-7.167,0.673-9.98-1.581l-25.222-20.207
	c-1.938-1.553-4.376-2.345-6.856-2.228l-32.283,1.523c-3.601,0.17-7.024-1.574-9.003-4.588l-17.743-27.012
	c-1.363-2.076-3.436-3.582-5.832-4.237l-31.173-8.527c-3.477-0.951-6.193-3.667-7.144-7.144l-8.527-31.173
	c-0.655-2.395-2.161-4.469-4.237-5.832L37.154,373.18c-3.013-1.98-4.758-5.402-4.588-9.003l1.523-32.283
	c0.117-2.481-0.676-4.918-2.228-6.856l-20.207-25.222c-2.254-2.813-2.855-6.608-1.581-9.98l11.424-30.231
	c0.878-2.323,0.878-4.886,0-7.209l-11.424-30.233c-1.274-3.372-0.673-7.167,1.581-9.98l20.207-25.222
	c1.553-1.938,2.345-4.376,2.228-6.856l-1.523-32.283c-0.17-3.601,1.574-7.024,4.588-9.003l27.012-17.743
	c2.076-1.363,3.582-3.436,4.237-5.832l8.527-31.173c0.951-3.477,3.667-6.193,7.144-7.144l31.173-8.527
	c2.395-0.655,4.469-2.161,5.832-4.237l17.743-27.012c1.98-3.013,5.402-4.758,9.003-4.588l32.283,1.523
	c2.48,0.118,4.918-0.676,6.856-2.228l25.222-20.207c2.813-2.254,6.608-2.855,9.98-1.581l30.231,11.424
	C254.718,22.375,257.282,22.375,259.605,21.498z"
  />
  <path
    style="fill: #e1a546"
    d="M332.961,435.573c-141.679,0-256.534-114.854-256.534-256.534c0-37.945,8.304-73.929,23.089-106.334
	l-15.441,4.224c-3.477,0.951-6.193,3.667-7.144,7.144l-8.528,31.173c-0.655,2.395-2.161,4.469-4.237,5.833l-27.012,17.743
	c-3.013,1.98-4.758,5.402-4.588,9.002l1.523,32.283c0.117,2.48-0.676,4.918-2.228,6.856l-20.207,25.222
	c-2.254,2.813-2.855,6.608-1.581,9.979l11.424,30.231c0.878,2.323,0.878,4.886,0,7.209l-11.424,30.231
	c-1.274,3.372-0.673,7.167,1.581,9.98l20.207,25.222c1.553,1.938,2.345,4.376,2.228,6.856l-1.523,32.283
	c-0.17,3.601,1.574,7.024,4.588,9.003l27.012,17.743c2.075,1.363,3.582,3.436,4.237,5.832l8.528,31.173
	c0.951,3.477,3.667,6.193,7.144,7.146l31.173,8.528c2.395,0.655,4.469,2.161,5.832,4.237l17.743,27.012
	c1.98,3.013,5.402,4.757,9.003,4.588l32.282-1.523c2.481-0.117,4.919,0.676,6.857,2.228l25.222,20.207
	c2.813,2.253,6.608,2.855,9.979,1.581l30.231-11.424c2.323-0.878,4.886-0.878,7.209,0l30.231,11.424
	c3.372,1.274,7.167,0.673,9.979-1.581l25.222-20.207c1.938-1.552,4.376-2.344,6.857-2.228l32.282,1.523
	c3.601,0.17,7.024-1.574,9.003-4.588l17.743-27.012c1.363-2.075,3.436-3.582,5.832-4.237l31.173-8.528
	c3.477-0.951,6.193-3.667,7.144-7.146l4.224-15.441C406.889,427.27,370.905,435.573,332.961,435.573z"
  />
  <circle style="fill: #ffdc64" cx="255.999" cy="256" r="196.676" />
  <path
    style="fill: #ffc850"
    d="M336.537,395.929c-1.436-2.393-3.93-3.919-6.707-4.203c-99.11-10.134-176.444-93.801-176.444-195.585
	c0-25.788,4.99-50.401,14.024-72.961c2.306-5.757-4.134-10.967-9.218-7.416c-49.284,34.42-79.609,94.099-72.069,160.304
	c8.767,76.978,70.306,139.279,147.113,149.444c36.326,4.808,70.523-2.121,99.925-17.162
	C337.672,406.043,339.144,400.275,336.537,395.929L336.537,395.929z"
  />
  <path
    style="fill: #ffffff"
    d="M384.31,226.071c0-11.807-9.571-21.378-21.378-21.378h-74.009
	c19.906-16.117,33.424-37.736,35.378-55.516c1.448-13.184-7.667-25.705-20.929-25.828c-11.894-0.11-21.574,9.401-21.574,21.268
	c0,7.699-16.71,30.547-48.025,40.713c-5.021,1.629-9.398,4.73-13.011,8.578c-2.662,2.833-9.754,11.462-16.708,16.167
	c-1.262-3.148-4.313-5.383-7.912-5.383h-51.307c-4.722,0-8.551,3.829-8.551,8.551v136.818c0,4.722,3.829,8.551,8.551,8.551h51.307
	c4.722,0,8.551-3.829,8.551-8.551h136.861c9.446,0,17.102-7.658,17.102-17.102c0-9.446-7.656-17.102-17.102-17.102h8.551
	c9.446,0,17.102-7.658,17.102-17.102c0-9.446-7.656-17.102-17.102-17.102h8.551c9.446,0,17.102-7.658,17.102-17.102
	c0-9.446-7.656-17.102-17.102-17.102h4.276C374.738,247.448,384.31,237.878,384.31,226.071z"
  />
  <g>
    <path
      style="fill: #fffab4"
      d="M332.961,298.755c-4.722,0-8.551,3.829-8.551,8.551c0,4.722,3.829,8.551,8.551,8.551h8.594h7.637
		c8.519,0,16.415-5.822,17.783-14.231c0.158-0.978,0.149-1.924,0.147-2.871H332.961z"
    />
    <path
      style="fill: #fffab4"
      d="M332.961,264.551c-4.722,0-8.551,3.829-8.551,8.551c0,4.722,3.829,8.551,8.551,8.551h17.145h7.637
		c8.519,0,16.415-5.822,17.783-14.231c0.158-0.978,0.149-1.924,0.148-2.871H332.961z"
    />
    <path
      style="fill: #fffab4"
      d="M332.961,230.346c-4.722,0-8.551,3.829-8.551,8.551c0,4.722,3.829,8.551,8.551,8.551h25.696h4.276
		c10.329,0,18.836-7.365,20.833-17.102H332.961z"
    />
    <path
      style="fill: #fffab4"
      d="M230.347,324.409V219.666c0-3.722,2.395-6.978,5.931-8.136c17.232-5.65,66.339-26.733,70.55-84.467
		c-1.426-1.463-2.193-2.25-3.619-3.713c-11.819-0.022-21.412,9.455-21.412,21.269c0,7.699-16.71,30.547-48.025,40.713
		c-5.021,1.629-9.398,4.73-13.011,8.578c-2.58,2.746-9.325,10.909-16.069,15.695V332.96h-25.653
		c-9.446,0-17.102-7.656-17.102-17.102V204.693h-17.102c-4.722,0-8.551,3.829-8.551,8.551v136.818c0,4.722,3.829,8.551,8.551,8.551
		h51.307c4.722,0,8.551-3.829,8.551-8.551h136.861c9.446,0,17.102-7.658,17.102-17.102H238.897
		C234.175,332.96,230.347,329.132,230.347,324.409z"
    />
  </g>
  <path
    d="M392.327,226.071c0-16.209-13.186-29.395-29.395-29.395H308.91c13.125-14.753,21.703-31.552,23.36-46.623
	c1.012-9.205-1.832-18.342-7.805-25.069c-5.459-6.149-12.924-9.576-21.02-9.651c-0.094-0.001-0.188-0.001-0.281-0.001
	c-7.831,0-15.181,3.016-20.728,8.512c-5.548,5.497-8.618,12.82-8.654,20.635c-0.285,1.711-3.295,7.61-10.66,14.614
	c-6.03,5.736-16.446,13.621-31.825,18.614c-6.03,1.958-11.541,5.563-16.379,10.715c-2.539,2.702-6.341,6.434-11.048,10.18
	c-2.31-1.224-4.937-1.924-7.728-1.924h-51.307c-9.136,0-16.568,7.432-16.568,16.568v136.818c0,9.136,7.432,16.568,16.568,16.568
	h51.307c6.228,0,11.659-3.458,14.489-8.551h130.923c13.851,0,25.119-11.268,25.119-25.119c0-4.657-1.273-9.021-3.491-12.765
	c7.217-4.418,12.042-12.376,12.042-21.44c0-4.657-1.273-9.021-3.491-12.765c7.217-4.418,12.042-12.376,12.042-21.44
	c0-5.242-1.614-10.114-4.371-14.146C387.197,245.114,392.327,236.18,392.327,226.071z M362.932,239.432h-4.276
	c-4.427,0-8.017,3.589-8.017,8.017c0,4.427,3.589,8.017,8.017,8.017c5.01,0,9.086,4.076,9.086,9.086s-4.076,9.086-9.086,9.086
	h-8.551c-4.427,0-8.017,3.589-8.017,8.017s3.589,8.017,8.017,8.017c5.01,0,9.086,4.076,9.086,9.086s-4.076,9.086-9.086,9.086h-8.551
	c-4.427,0-8.017,3.589-8.017,8.017s3.589,8.017,8.017,8.017c5.01,0,9.086,4.076,9.086,9.086c0,5.01-4.076,9.086-9.086,9.086H212.71
	v-77.495c0-4.427-3.589-8.017-8.017-8.017c-4.427,0-8.017,3.589-8.017,8.017v85.511c0,0.295-0.239,0.534-0.534,0.534h-51.307
	c-0.295,0-0.534-0.239-0.534-0.534V213.244c0-0.295,0.239-0.534,0.534-0.534h51.307c0.295,0,0.534,0.239,0.534,0.534v17.103
	c0,4.427,3.589,8.017,8.017,8.017c4.427,0,8.017-3.589,8.017-8.017v-17.103c0-0.389-0.032-0.77-0.059-1.152
	c6.011-4.653,10.818-9.357,13.954-12.695c2.967-3.161,6.211-5.327,9.642-6.44c18.87-6.126,31.569-15.99,38.898-23.186
	c9.186-9.019,14.669-18.421,14.669-25.152c0-3.556,1.387-6.889,3.906-9.385c2.55-2.527,5.927-3.862,9.576-3.867
	c4.494,0.042,7.47,2.341,9.177,4.263c2.926,3.295,4.366,8.033,3.857,12.672c-1.751,15.929-14.49,35.619-32.454,50.161
	c-2.639,2.137-3.646,5.705-2.513,8.906c1.133,3.201,4.161,5.341,7.557,5.341h74.01c7.368,0,13.361,5.993,13.361,13.361
	S370.299,239.432,362.932,239.432z"
  />
  <path
    d="M170.489,316.306c-4.427,0-8.059,3.632-8.059,8.059s3.632,8.059,8.059,8.059c4.427,0,8.059-3.632,8.059-8.059
	S174.917,316.306,170.489,316.306z"
  />
  <path
    d="M497.71,256l13.772-36.443c1.003-2.651,0.53-5.634-1.243-7.847l-24.359-30.404l1.836-38.915
	c0.134-2.83-1.238-5.523-3.606-7.078l-32.562-21.389l-10.278-37.578c-0.748-2.734-2.884-4.87-5.617-5.617l-37.578-10.278
	L376.686,27.89c-1.556-2.369-4.248-3.735-7.078-3.606l-38.915,1.836L300.289,1.761c-2.212-1.772-5.195-2.245-7.847-1.243
	l-36.443,13.772L219.558,0.519c-2.653-1.003-5.635-0.53-7.847,1.243l-30.404,24.359l-38.915-1.836
	c-2.844-0.134-5.523,1.238-7.078,3.606l-21.389,32.562L76.348,70.731c-2.734,0.748-4.87,2.884-5.617,5.617l-10.278,37.578
	l-32.562,21.389c-2.369,1.556-3.74,4.248-3.606,7.078l1.836,38.915L1.762,211.711c-1.772,2.212-2.245,5.195-1.243,7.847L14.29,256
	L0.518,292.442c-1.003,2.651-0.53,5.634,1.243,7.847l24.359,30.404l-1.836,38.915c-0.134,2.83,1.238,5.523,3.606,7.078
	l32.562,21.389l10.278,37.578c0.748,2.734,2.884,4.87,5.617,5.617l37.578,10.278l21.389,32.562c1.556,2.369,4.253,3.732,7.078,3.606
	l38.915-1.836l30.404,24.359c2.212,1.773,5.196,2.246,7.847,1.243l36.443-13.772l36.443,13.772c0.92,0.347,1.879,0.517,2.833,0.517
	c1.796,0,3.569-0.603,5.013-1.76l30.404-24.359l38.915,1.836c2.839,0.126,5.522-1.238,7.078-3.606l21.389-32.562l37.578-10.278
	c2.734-0.748,4.87-2.884,5.617-5.617l10.278-37.578l32.562-21.389c2.369-1.556,3.74-4.248,3.606-7.078l-1.836-38.915l24.359-30.404
	c1.772-2.212,2.245-5.195,1.243-7.847L497.71,256z M481.641,258.834l13.226,34.999l-23.394,29.199
	c-1.221,1.523-1.844,3.44-1.752,5.39l1.764,37.373l-31.272,20.541c-1.631,1.071-2.817,2.702-3.332,4.586l-9.871,36.089
	l-36.089,9.871c-1.883,0.515-3.513,1.7-4.586,3.332l-20.541,31.272l-37.373-1.764c-1.951-0.09-3.867,0.531-5.39,1.752
	l-29.199,23.394l-34.999-13.226c-0.913-0.345-1.874-0.517-2.834-0.517c-0.96,0-1.921,0.173-2.834,0.517l-34.999,13.226
	l-29.199-23.394c-1.523-1.221-3.443-1.842-5.39-1.752l-37.373,1.764l-20.541-31.272c-1.071-1.631-2.702-2.817-4.586-3.332
	l-36.089-9.871l-9.871-36.089c-0.515-1.883-1.7-3.513-3.332-4.586l-31.271-20.541l1.764-37.373c0.092-1.951-0.531-3.867-1.752-5.39
	l-23.394-29.199l13.226-34.999c0.691-1.826,0.691-3.842,0-5.668l-13.226-34.999l23.394-29.199c1.221-1.523,1.844-3.44,1.752-5.39
	l-1.764-37.373l31.271-20.541c1.631-1.071,2.817-2.702,3.332-4.586l9.871-36.089l36.089-9.871c1.883-0.515,3.513-1.7,4.586-3.332
	l20.541-31.271l37.373,1.764c1.948,0.091,3.867-0.531,5.39-1.752l29.199-23.394l34.999,13.226c1.827,0.691,3.842,0.691,5.668,0
	l34.999-13.226l29.199,23.394c1.523,1.222,3.441,1.844,5.39,1.752l37.373-1.764l20.541,31.271c1.071,1.631,2.702,2.817,4.586,3.332
	l36.089,9.871l9.871,36.089c0.515,1.883,1.7,3.513,3.332,4.586l31.271,20.541l-1.764,37.373c-0.092,1.951,0.531,3.867,1.752,5.39
	l23.394,29.199l-13.226,34.999C480.951,254.993,480.951,257.008,481.641,258.834z"
  />
  <path
    d="M389.144,122.491c1.927,1.927,3.838,3.922,5.679,5.926c1.581,1.722,3.741,2.595,5.908,2.595c1.937,0,3.88-0.698,5.419-2.111
	c3.261-2.994,3.478-8.066,0.484-11.327c-1.995-2.172-4.064-4.332-6.153-6.42s-4.248-4.158-6.42-6.153
	c-3.261-2.994-8.332-2.778-11.327,0.484c-2.994,3.261-2.778,8.333,0.484,11.327C385.222,118.652,387.215,120.562,389.144,122.491z"
  />
  <path
    d="M122.339,122.491c30.54-30.541,70.972-49.806,113.845-54.247c42.275-4.38,85.171,5.709,120.792,28.403
	c3.735,2.379,8.689,1.281,11.068-2.453s1.281-8.689-2.453-11.068c-38.66-24.63-85.206-35.576-131.059-30.829
	c-46.525,4.82-90.395,25.722-123.531,58.857c-36.467,36.467-57.699,84.911-59.785,136.408
	C49.144,298.755,66.1,348.459,98.963,387.515c1.585,1.884,3.853,2.855,6.139,2.855c1.822,0,3.653-0.618,5.157-1.882
	c3.387-2.851,3.823-7.908,0.973-11.295c-30.281-35.989-45.905-81.795-43.994-128.982C69.159,200.749,88.728,156.101,122.339,122.491
	z"
  />
  <path
    d="M417.442,143.589c-3.735,2.379-4.832,7.335-2.453,11.068c22.694,35.622,32.781,78.52,28.403,120.792
	c-4.441,42.874-23.706,83.305-54.246,113.847c-33.611,33.61-78.259,53.179-125.72,55.101
	c-47.179,1.918-92.994-13.713-128.982-43.993c-3.387-2.851-8.444-2.415-11.295,0.973c-2.851,3.387-2.415,8.444,0.973,11.295
	c36.921,31.065,83.351,47.917,131.566,47.916c2.789,0,5.589-0.057,8.389-0.17c51.497-2.085,99.94-23.317,136.408-59.784
	c33.136-33.136,54.039-77.007,58.857-123.532c4.75-45.855-6.198-92.399-30.829-131.059
	C426.132,142.308,421.174,141.209,417.442,143.589z"
  />
</svg>
