<svg
  xmlns="http://www.w3.org/2000/svg"
  xmlns:xlink="http://www.w3.org/1999/xlink"
  version="1.1"
  width="256"
  height="256"
  viewBox="0 0 256 256"
  xml:space="preserve"
>
  <defs></defs>
  <g
    style="
      stroke: none;
      stroke-width: 0;
      stroke-dasharray: none;
      stroke-linecap: butt;
      stroke-linejoin: miter;
      stroke-miterlimit: 10;
      fill: none;
      fill-rule: nonzero;
      opacity: 1;
    "
    transform="translate(1.4065934065934016 1.4065934065934016) scale(2.81 2.81)"
  >
    <path
      d="M 71.564 82.516 h 4.555 c 1.577 0 2.856 -1.279 2.856 -2.856 V 18.798 V 3.856 C 78.975 2.279 77.696 1 76.119 1 H 61.177 H 36.234 H 21.291 c -1.577 0 -2.856 1.279 -2.856 2.856 v 3.628 L 71.564 82.516 z"
      style="
        stroke: none;
        stroke-width: 1;
        stroke-dasharray: none;
        stroke-linecap: butt;
        stroke-linejoin: miter;
        stroke-miterlimit: 10;
        fill: rgb(163, 224, 255);
        fill-rule: nonzero;
        opacity: 1;
      "
      transform=" matrix(1 0 0 1 0 0) "
      stroke-linecap="round"
    />
    <path
      d="M 76.119 83.516 h -4.555 v -2 h 4.555 c 1.023 0 1.855 -0.832 1.855 -1.855 V 3.856 C 77.975 2.833 77.143 2 76.119 2 H 21.292 c -1.023 0 -1.856 0.833 -1.856 1.856 v 3.628 h -2 V 3.856 C 17.436 1.73 19.166 0 21.292 0 h 54.828 c 2.126 0 3.855 1.73 3.855 3.856 V 79.66 C 79.975 81.786 78.245 83.516 76.119 83.516 z"
      style="
        stroke: none;
        stroke-width: 1;
        stroke-dasharray: none;
        stroke-linecap: butt;
        stroke-linejoin: miter;
        stroke-miterlimit: 10;
        fill: rgb(0, 0, 0);
        fill-rule: nonzero;
        opacity: 1;
      "
      transform=" matrix(1 0 0 1 0 0) "
      stroke-linecap="round"
    />
    <path
      d="M 71.564 25.282 v 60.862 c 0 1.577 -1.279 2.856 -2.856 2.856 H 13.881 c -1.577 0 -2.856 -1.279 -2.856 -2.856 V 10.34 c 0 -1.577 1.279 -2.856 2.856 -2.856 h 39.885 c 0.757 0 1.484 0.301 2.019 0.836 l 14.942 14.942 C 71.264 23.799 71.564 24.525 71.564 25.282 z"
      style="
        stroke: none;
        stroke-width: 1;
        stroke-dasharray: none;
        stroke-linecap: butt;
        stroke-linejoin: miter;
        stroke-miterlimit: 10;
        fill: rgb(228, 246, 255);
        fill-rule: nonzero;
        opacity: 1;
      "
      transform=" matrix(1 0 0 1 0 0) "
      stroke-linecap="round"
    />
    <path
      d="M 71.564 24.1 H 57.551 c -1.437 0 -2.602 -1.165 -2.602 -2.602 V 7.484"
      style="
        stroke: none;
        stroke-width: 1;
        stroke-dasharray: none;
        stroke-linecap: butt;
        stroke-linejoin: miter;
        stroke-miterlimit: 10;
        fill: rgb(200, 237, 255);
        fill-rule: nonzero;
        opacity: 1;
      "
      transform=" matrix(1 0 0 1 0 0) "
      stroke-linecap="round"
    />
    <path
      d="M 71.564 25.1 H 57.551 c -1.986 0 -3.602 -1.616 -3.602 -3.602 V 7.484 h 2 v 14.013 c 0 0.883 0.719 1.602 1.602 1.602 h 14.014 V 25.1 z"
      style="
        stroke: none;
        stroke-width: 1;
        stroke-dasharray: none;
        stroke-linecap: butt;
        stroke-linejoin: miter;
        stroke-miterlimit: 10;
        fill: rgb(0, 0, 0);
        fill-rule: nonzero;
        opacity: 1;
      "
      transform=" matrix(1 0 0 1 0 0) "
      stroke-linecap="round"
    />
    <path
      d="M 68.709 90 H 13.881 c -2.126 0 -3.856 -1.729 -3.856 -3.855 V 10.34 c 0 -2.126 1.73 -3.855 3.856 -3.855 h 39.886 c 1.016 0 2.009 0.412 2.726 1.129 l 14.942 14.942 c 0.729 0.728 1.13 1.696 1.13 2.726 v 60.862 C 72.564 88.271 70.835 90 68.709 90 z M 13.881 8.484 c -1.023 0 -1.856 0.833 -1.856 1.855 v 75.805 c 0 1.023 0.833 1.855 1.856 1.855 h 54.828 c 1.023 0 1.855 -0.832 1.855 -1.855 V 25.282 c 0 -0.496 -0.193 -0.961 -0.544 -1.312 L 55.078 9.028 c -0.346 -0.346 -0.823 -0.543 -1.312 -0.543 H 13.881 z"
      style="
        stroke: none;
        stroke-width: 1;
        stroke-dasharray: none;
        stroke-linecap: butt;
        stroke-linejoin: miter;
        stroke-miterlimit: 10;
        fill: rgb(0, 0, 0);
        fill-rule: nonzero;
        opacity: 1;
      "
      transform=" matrix(1 0 0 1 0 0) "
      stroke-linecap="round"
    />
    <path
      d="M 25.577 28.861 L 25.577 28.861 c -2.111 0 -3.822 -1.711 -3.822 -3.822 V 22.79 c 0 -2.111 1.711 -3.822 3.822 -3.822 h 0 c 2.111 0 3.822 1.711 3.822 3.822 v 2.248 C 29.4 27.15 27.688 28.861 25.577 28.861 z"
      style="
        stroke: none;
        stroke-width: 1;
        stroke-dasharray: none;
        stroke-linecap: butt;
        stroke-linejoin: miter;
        stroke-miterlimit: 10;
        fill: rgb(255, 255, 255);
        fill-rule: nonzero;
        opacity: 1;
      "
      transform=" matrix(1 0 0 1 0 0) "
      stroke-linecap="round"
    />
    <path
      d="M 31.592 36.319 v -1.444 c 0 -3.322 -2.693 -6.014 -6.014 -6.014 s -6.014 2.693 -6.014 6.014 v 1.444"
      style="
        stroke: none;
        stroke-width: 1;
        stroke-dasharray: none;
        stroke-linecap: butt;
        stroke-linejoin: miter;
        stroke-miterlimit: 10;
        fill: rgb(255, 255, 255);
        fill-rule: nonzero;
        opacity: 1;
      "
      transform=" matrix(1 0 0 1 0 0) "
      stroke-linecap="round"
    />
    <path
      d="M 25.578 29.861 c -2.659 0 -4.822 -2.163 -4.822 -4.822 v -2.248 c 0 -2.659 2.163 -4.822 4.822 -4.822 c 2.659 0 4.822 2.163 4.822 4.822 v 2.248 C 30.399 27.698 28.236 29.861 25.578 29.861 z M 25.578 19.968 c -1.556 0 -2.822 1.266 -2.822 2.822 v 2.248 c 0 1.556 1.266 2.822 2.822 2.822 s 2.822 -1.266 2.822 -2.822 v -2.248 C 28.399 21.234 27.134 19.968 25.578 19.968 z"
      style="
        stroke: none;
        stroke-width: 1;
        stroke-dasharray: none;
        stroke-linecap: butt;
        stroke-linejoin: miter;
        stroke-miterlimit: 10;
        fill: rgb(0, 0, 0);
        fill-rule: nonzero;
        opacity: 1;
      "
      transform=" matrix(1 0 0 1 0 0) "
      stroke-linecap="round"
    />
    <path
      d="M 31.592 37.319 c -0.552 0 -1 -0.448 -1 -1 v -1.444 c 0 -2.765 -2.25 -5.014 -5.014 -5.014 c -2.765 0 -5.015 2.25 -5.015 5.014 v 1.444 c 0 0.552 -0.448 1 -1 1 s -1 -0.448 -1 -1 v -1.444 c 0 -3.868 3.147 -7.014 7.015 -7.014 s 7.014 3.146 7.014 7.014 v 1.444 C 32.592 36.871 32.144 37.319 31.592 37.319 z"
      style="
        stroke: none;
        stroke-width: 1;
        stroke-dasharray: none;
        stroke-linecap: butt;
        stroke-linejoin: miter;
        stroke-miterlimit: 10;
        fill: rgb(0, 0, 0);
        fill-rule: nonzero;
        opacity: 1;
      "
      transform=" matrix(1 0 0 1 0 0) "
      stroke-linecap="round"
    />
    <path
      d="M 63.026 37.29 H 39.23 c -0.552 0 -1 -0.448 -1 -1 s 0.448 -1 1 -1 h 23.796 c 0.553 0 1 0.448 1 1 S 63.579 37.29 63.026 37.29 z"
      style="
        stroke: none;
        stroke-width: 1;
        stroke-dasharray: none;
        stroke-linecap: butt;
        stroke-linejoin: miter;
        stroke-miterlimit: 10;
        fill: rgb(0, 0, 0);
        fill-rule: nonzero;
        opacity: 1;
      "
      transform=" matrix(1 0 0 1 0 0) "
      stroke-linecap="round"
    />
    <path
      d="M 63.026 47.597 H 27.9 c -0.552 0 -1 -0.447 -1 -1 s 0.448 -1 1 -1 h 35.126 c 0.553 0 1 0.447 1 1 S 63.579 47.597 63.026 47.597 z"
      style="
        stroke: none;
        stroke-width: 1;
        stroke-dasharray: none;
        stroke-linecap: butt;
        stroke-linejoin: miter;
        stroke-miterlimit: 10;
        fill: rgb(0, 0, 0);
        fill-rule: nonzero;
        opacity: 1;
      "
      transform=" matrix(1 0 0 1 0 0) "
      stroke-linecap="round"
    />
    <path
      d="M 44.285 57.903 H 27.9 c -0.552 0 -1 -0.447 -1 -1 s 0.448 -1 1 -1 h 16.385 c 0.552 0 1 0.447 1 1 S 44.837 57.903 44.285 57.903 z"
      style="
        stroke: none;
        stroke-width: 1;
        stroke-dasharray: none;
        stroke-linecap: butt;
        stroke-linejoin: miter;
        stroke-miterlimit: 10;
        fill: rgb(0, 0, 0);
        fill-rule: nonzero;
        opacity: 1;
      "
      transform=" matrix(1 0 0 1 0 0) "
      stroke-linecap="round"
    />
    <path
      d="M 63.026 57.903 H 51.174 c -0.553 0 -1 -0.447 -1 -1 s 0.447 -1 1 -1 h 11.853 c 0.553 0 1 0.447 1 1 S 63.579 57.903 63.026 57.903 z"
      style="
        stroke: none;
        stroke-width: 1;
        stroke-dasharray: none;
        stroke-linecap: butt;
        stroke-linejoin: miter;
        stroke-miterlimit: 10;
        fill: rgb(0, 0, 0);
        fill-rule: nonzero;
        opacity: 1;
      "
      transform=" matrix(1 0 0 1 0 0) "
      stroke-linecap="round"
    />
    <path
      d="M 63.026 68.209 H 27.9 c -0.552 0 -1 -0.447 -1 -1 s 0.448 -1 1 -1 h 35.126 c 0.553 0 1 0.447 1 1 S 63.579 68.209 63.026 68.209 z"
      style="
        stroke: none;
        stroke-width: 1;
        stroke-dasharray: none;
        stroke-linecap: butt;
        stroke-linejoin: miter;
        stroke-miterlimit: 10;
        fill: rgb(0, 0, 0);
        fill-rule: nonzero;
        opacity: 1;
      "
      transform=" matrix(1 0 0 1 0 0) "
      stroke-linecap="round"
    />
    <path
      d="M 63.026 78.516 H 51.174 c -0.553 0 -1 -0.447 -1 -1 s 0.447 -1 1 -1 h 11.853 c 0.553 0 1 0.447 1 1 S 63.579 78.516 63.026 78.516 z"
      style="
        stroke: none;
        stroke-width: 1;
        stroke-dasharray: none;
        stroke-linecap: butt;
        stroke-linejoin: miter;
        stroke-miterlimit: 10;
        fill: rgb(0, 0, 0);
        fill-rule: nonzero;
        opacity: 1;
      "
      transform=" matrix(1 0 0 1 0 0) "
      stroke-linecap="round"
    />
    <path
      d="M 21.312 47.597 h -1.749 c -0.552 0 -1 -0.447 -1 -1 s 0.448 -1 1 -1 h 1.749 c 0.552 0 1 0.447 1 1 S 21.864 47.597 21.312 47.597 z"
      style="
        stroke: none;
        stroke-width: 1;
        stroke-dasharray: none;
        stroke-linecap: butt;
        stroke-linejoin: miter;
        stroke-miterlimit: 10;
        fill: rgb(0, 0, 0);
        fill-rule: nonzero;
        opacity: 1;
      "
      transform=" matrix(1 0 0 1 0 0) "
      stroke-linecap="round"
    />
    <path
      d="M 21.312 57.874 h -1.749 c -0.552 0 -1 -0.447 -1 -1 s 0.448 -1 1 -1 h 1.749 c 0.552 0 1 0.447 1 1 S 21.864 57.874 21.312 57.874 z"
      style="
        stroke: none;
        stroke-width: 1;
        stroke-dasharray: none;
        stroke-linecap: butt;
        stroke-linejoin: miter;
        stroke-miterlimit: 10;
        fill: rgb(0, 0, 0);
        fill-rule: nonzero;
        opacity: 1;
      "
      transform=" matrix(1 0 0 1 0 0) "
      stroke-linecap="round"
    />
    <path
      d="M 21.312 68.151 h -1.749 c -0.552 0 -1 -0.447 -1 -1 s 0.448 -1 1 -1 h 1.749 c 0.552 0 1 0.447 1 1 S 21.864 68.151 21.312 68.151 z"
      style="
        stroke: none;
        stroke-width: 1;
        stroke-dasharray: none;
        stroke-linecap: butt;
        stroke-linejoin: miter;
        stroke-miterlimit: 10;
        fill: rgb(0, 0, 0);
        fill-rule: nonzero;
        opacity: 1;
      "
      transform=" matrix(1 0 0 1 0 0) "
      stroke-linecap="round"
    />
  </g>
</svg>
