<svg
  xmlns="http://www.w3.org/2000/svg"
  xmlns:xlink="http://www.w3.org/1999/xlink"
  version="1.1"
  width="256"
  height="256"
  viewBox="0 0 256 256"
  xml:space="preserve"
>
  <defs></defs>
  <g
    style="
      stroke: none;
      stroke-width: 0;
      stroke-dasharray: none;
      stroke-linecap: butt;
      stroke-linejoin: miter;
      stroke-miterlimit: 10;
      fill: none;
      fill-rule: nonzero;
      opacity: 1;
    "
    transform="translate(1.4065934065934016 1.4065934065934016) scale(2.81 2.81)"
  >
    <path
      d="M 51.374 81.652 c -0.419 0 -0.84 -0.101 -1.229 -0.305 l -4.847 -2.55 c -0.187 -0.098 -0.409 -0.1 -0.596 0.001 l -4.846 2.548 c -0.896 0.471 -1.963 0.394 -2.781 -0.201 c -0.818 -0.596 -1.221 -1.585 -1.049 -2.582 l 0.925 -5.396 c 0.036 -0.208 -0.033 -0.419 -0.184 -0.565 l -3.921 -3.823 c -0.725 -0.706 -0.98 -1.743 -0.668 -2.705 c 0.313 -0.963 1.129 -1.652 2.131 -1.798 l 5.419 -0.787 c 0.208 -0.03 0.388 -0.161 0.481 -0.351 l 2.424 -4.909 c 0.448 -0.908 1.355 -1.473 2.367 -1.473 c 1.013 0 1.92 0.564 2.367 1.473 l 2.423 4.909 c 0.094 0.189 0.273 0.32 0.481 0.351 l 5.419 0.787 c 1.003 0.146 1.819 0.835 2.132 1.798 c 0.313 0.962 0.057 1.999 -0.668 2.705 l -3.921 3.822 c -0.151 0.147 -0.22 0.358 -0.185 0.567 l 0.926 5.396 c 0.171 0.998 -0.231 1.987 -1.05 2.582 C 52.462 81.481 51.92 81.652 51.374 81.652 z M 45 76.725 c 0.422 0 0.844 0.102 1.229 0.303 l 4.847 2.55 c 0.315 0.165 0.576 0.021 0.674 -0.05 c 0.097 -0.07 0.315 -0.272 0.255 -0.626 l -0.926 -5.396 c -0.146 -0.858 0.138 -1.731 0.76 -2.337 l 3.92 -3.821 c 0.258 -0.251 0.199 -0.543 0.162 -0.656 c -0.037 -0.114 -0.161 -0.385 -0.518 -0.437 l -5.417 -0.787 c -0.859 -0.124 -1.603 -0.664 -1.988 -1.443 l -2.423 -4.91 c -0.159 -0.322 -0.454 -0.357 -0.574 -0.357 s -0.415 0.035 -0.574 0.357 l -2.424 4.909 c -0.384 0.78 -1.128 1.32 -1.988 1.444 l -5.418 0.787 c -0.355 0.052 -0.479 0.322 -0.517 0.437 c -0.037 0.113 -0.095 0.405 0.163 0.656 l 3.921 3.822 c 0.622 0.605 0.906 1.479 0.759 2.336 l -0.926 5.396 c -0.061 0.354 0.157 0.556 0.254 0.626 c 0.096 0.07 0.354 0.216 0.674 0.049 l 4.846 -2.548 C 44.156 76.826 44.578 76.725 45 76.725 z"
      style="
        stroke: none;
        stroke-width: 1;
        stroke-dasharray: none;
        stroke-linecap: butt;
        stroke-linejoin: miter;
        stroke-miterlimit: 10;
        fill: #a3e0ff;
        fill-rule: nonzero;
        opacity: 1;
      "
      transform=" matrix(1 0 0 1 0 0) "
      stroke-linecap="round"
    />
    <path
      d="M 19.328 81.652 c -0.419 0 -0.841 -0.101 -1.23 -0.305 l -4.847 -2.55 c -0.188 -0.099 -0.41 -0.099 -0.596 0.001 l -4.846 2.548 c -0.896 0.471 -1.962 0.394 -2.78 -0.201 c -0.819 -0.595 -1.222 -1.584 -1.051 -2.582 l 0.926 -5.396 c 0.036 -0.208 -0.033 -0.419 -0.183 -0.565 l -3.922 -3.823 c -0.725 -0.706 -0.98 -1.743 -0.668 -2.705 c 0.313 -0.963 1.129 -1.652 2.13 -1.798 l 5.42 -0.787 c 0.208 -0.03 0.388 -0.161 0.482 -0.351 l 2.422 -4.909 c 0.448 -0.908 1.355 -1.473 2.368 -1.473 s 1.919 0.564 2.368 1.473 l 2.423 4.909 c 0.094 0.189 0.273 0.32 0.481 0.351 l 5.419 0.787 c 1.002 0.146 1.819 0.835 2.132 1.797 c 0.313 0.963 0.057 1.999 -0.668 2.706 l -3.921 3.822 c -0.151 0.147 -0.22 0.358 -0.184 0.566 l 0.925 5.396 c 0.171 0.997 -0.231 1.986 -1.05 2.582 C 20.416 81.481 19.874 81.652 19.328 81.652 z M 12.954 76.725 c 0.422 0 0.844 0.102 1.228 0.304 l 4.847 2.549 c 0.318 0.163 0.577 0.021 0.674 -0.05 c 0.097 -0.07 0.315 -0.271 0.255 -0.626 l -0.926 -5.396 c -0.147 -0.857 0.137 -1.731 0.76 -2.337 l 3.92 -3.821 c 0.257 -0.251 0.199 -0.543 0.162 -0.656 c -0.037 -0.114 -0.162 -0.385 -0.518 -0.437 l -5.417 -0.787 c -0.86 -0.124 -1.604 -0.664 -1.988 -1.444 l -2.423 -4.909 c -0.159 -0.322 -0.454 -0.357 -0.574 -0.357 s -0.415 0.035 -0.574 0.357 l -2.423 4.909 c -0.386 0.78 -1.129 1.32 -1.989 1.444 l -5.418 0.787 c -0.355 0.052 -0.479 0.322 -0.516 0.437 c -0.037 0.114 -0.095 0.405 0.162 0.656 l 3.921 3.822 c 0.622 0.604 0.906 1.479 0.759 2.336 L 5.95 78.901 c -0.061 0.354 0.158 0.556 0.254 0.626 c 0.097 0.07 0.355 0.216 0.675 0.049 l 4.846 -2.548 C 12.109 76.826 12.532 76.725 12.954 76.725 z"
      style="
        stroke: none;
        stroke-width: 1;
        stroke-dasharray: none;
        stroke-linecap: butt;
        stroke-linejoin: miter;
        stroke-miterlimit: 10;
        fill: yellow;
        fill-rule: nonzero;
        opacity: 1;
      "
      transform=" matrix(1 0 0 1 0 0) "
      stroke-linecap="round"
    />
    <path
      d="M 83.421 81.652 c -0.419 0 -0.84 -0.101 -1.229 -0.305 l -4.848 -2.55 c -0.186 -0.098 -0.408 -0.099 -0.596 0.001 l -4.845 2.548 c -0.895 0.472 -1.961 0.394 -2.781 -0.201 c -0.818 -0.595 -1.221 -1.584 -1.05 -2.582 l 0.926 -5.396 c 0.035 -0.207 -0.033 -0.419 -0.185 -0.566 l -3.921 -3.822 c -0.725 -0.706 -0.98 -1.743 -0.668 -2.706 c 0.313 -0.962 1.129 -1.651 2.13 -1.797 l 5.42 -0.787 c 0.208 -0.03 0.388 -0.161 0.48 -0.35 l 2.425 -4.91 c 0.447 -0.908 1.354 -1.473 2.367 -1.473 s 1.92 0.564 2.367 1.473 l 2.423 4.909 c 0.094 0.189 0.273 0.32 0.481 0.351 l 5.419 0.787 c 1.003 0.146 1.819 0.835 2.132 1.798 c 0.313 0.962 0.057 1.999 -0.668 2.705 l -3.921 3.822 c -0.151 0.147 -0.22 0.358 -0.185 0.567 l 0.926 5.396 c 0.171 0.998 -0.231 1.987 -1.05 2.582 C 84.509 81.481 83.967 81.652 83.421 81.652 z M 77.047 76.725 c 0.422 0 0.844 0.102 1.228 0.304 l 4.848 2.549 c 0.315 0.164 0.576 0.021 0.674 -0.05 c 0.097 -0.07 0.315 -0.272 0.255 -0.626 l -0.926 -5.396 c -0.146 -0.858 0.138 -1.731 0.76 -2.337 l 3.92 -3.821 c 0.258 -0.251 0.199 -0.543 0.162 -0.656 c -0.037 -0.114 -0.161 -0.385 -0.518 -0.437 l -5.417 -0.787 c -0.859 -0.124 -1.603 -0.664 -1.988 -1.443 l -2.423 -4.91 c -0.159 -0.322 -0.455 -0.357 -0.574 -0.357 s -0.415 0.035 -0.574 0.357 l -2.424 4.909 c -0.384 0.78 -1.127 1.32 -1.988 1.444 l -5.418 0.787 c -0.354 0.052 -0.479 0.322 -0.516 0.437 c -0.037 0.113 -0.096 0.405 0.162 0.656 l 3.921 3.822 c 0.621 0.605 0.905 1.479 0.759 2.335 l -0.926 5.397 c -0.061 0.354 0.158 0.556 0.255 0.626 c 0.098 0.071 0.36 0.215 0.675 0.049 l 4.845 -2.548 C 76.203 76.826 76.625 76.725 77.047 76.725 z"
      style="
        stroke: none;
        stroke-width: 1;
        stroke-dasharray: none;
        stroke-linecap: butt;
        stroke-linejoin: miter;
        stroke-miterlimit: 10;
        fill: purple;
        fill-rule: nonzero;
        opacity: 1;
      "
      transform=" matrix(1 0 0 1 0 0) "
      stroke-linecap="round"
    />
    <path
      d="M 28.066 59.76 c -0.552 0 -1 -0.447 -1 -1 V 47.567 c 0 -2.746 2.098 -5.092 4.989 -5.579 l 4.569 -0.77 c 1.286 -0.216 2.219 -1.221 2.219 -2.388 l 0.029 -1.208 c 0.013 -0.552 0.488 -0.978 1.023 -0.976 c 0.552 0.013 0.989 0.471 0.976 1.023 l -0.028 1.184 c 0 2.123 -1.634 3.957 -3.887 4.336 l -4.569 0.77 c -1.924 0.324 -3.321 1.841 -3.321 3.606 V 58.76 C 29.066 59.313 28.618 59.76 28.066 59.76 z"
      style="
        stroke: none;
        stroke-width: 1;
        stroke-dasharray: none;
        stroke-linecap: butt;
        stroke-linejoin: miter;
        stroke-miterlimit: 10;
        fill: turquoise;
        fill-rule: nonzero;
        opacity: 1;
      "
      transform=" matrix(1 0 0 1 0 0) "
      stroke-linecap="round"
    />
    <path
      d="M 54.074 25.816 c -0.106 0 -0.215 -0.017 -0.319 -0.052 c -0.428 -0.144 -0.705 -0.557 -0.679 -1.006 c 0.083 -1.419 0.012 -2.038 -0.069 -2.306 c -2.095 0.313 -4.579 0.446 -7.453 -0.653 c -2.226 -0.932 -5.34 -2.034 -7 -1 c -0.955 0.595 -1.502 1.967 -1.627 4.076 c -0.025 0.431 -0.325 0.797 -0.742 0.908 c -0.417 0.111 -0.859 -0.06 -1.094 -0.422 c -2.093 -3.22 -2.767 -6.371 -1.897 -8.871 c 0.596 -1.712 1.899 -3.024 3.691 -3.725 c 3.35 -5 10.162 -5.248 15.514 -3.236 c 0.378 0.142 0.634 0.497 0.647 0.9 c 0.015 0.403 -0.215 0.776 -0.581 0.944 c -0.415 0.19 -0.729 0.358 -0.965 0.502 c 2.925 1.395 4.74 3.181 5.405 5.321 c 0.732 2.36 0.06 5.11 -2 8.176 C 54.715 25.656 54.4 25.816 54.074 25.816 z M 46.107 10.346 c -3.111 0 -6.046 1.075 -7.715 3.771 c -0.123 0.198 -0.31 0.347 -0.531 0.421 c -1.387 0.467 -2.348 1.37 -2.779 2.61 c -0.454 1.306 -0.315 2.907 0.382 4.653 c 0.428 -1.227 1.102 -2.119 2.031 -2.699 c 2.418 -1.509 5.975 -0.344 8.802 0.84 c 2.499 0.955 4.644 0.81 6.583 0.506 c 0.512 -0.095 1.022 0.039 1.411 0.381 c 0.188 0.165 0.334 0.367 0.449 0.598 c 0.498 -1.358 0.583 -2.575 0.254 -3.637 c -0.571 -1.839 -2.439 -3.396 -5.552 -4.628 c -0.462 -0.183 -0.72 -0.678 -0.604 -1.162 c 0.104 -0.438 0.36 -0.84 0.792 -1.229 C 48.47 10.498 47.276 10.346 46.107 10.346 z"
      style="
        stroke: none;
        stroke-width: 1;
        stroke-dasharray: none;
        stroke-linecap: butt;
        stroke-linejoin: miter;
        stroke-miterlimit: 10;
        fill: turquoise;
        fill-rule: nonzero;
        opacity: 1;
      "
      transform=" matrix(1 0 0 1 0 0) "
      stroke-linecap="round"
    />
    <path
      d="M 44.99 41.049 c -0.647 0 -1.284 -0.111 -1.892 -0.331 c -4.368 -1.579 -7.441 -5.589 -7.828 -10.217 l -0.34 -5.625 c -0.033 -0.551 0.386 -1.025 0.938 -1.058 c 0.544 -0.042 1.025 0.386 1.059 0.938 l 0.338 5.601 c 0.321 3.829 2.878 7.167 6.513 8.48 c 0.778 0.281 1.646 0.281 2.425 0 c 3.636 -1.314 6.192 -4.652 6.515 -8.503 l 0.358 -5.582 c 0.035 -0.551 0.488 -0.972 1.063 -0.934 c 0.551 0.036 0.969 0.511 0.934 1.062 l -0.36 5.601 c -0.389 4.647 -3.461 8.658 -7.829 10.237 C 46.274 40.938 45.638 41.049 44.99 41.049 z"
      style="
        stroke: none;
        stroke-width: 1;
        stroke-dasharray: none;
        stroke-linecap: butt;
        stroke-linejoin: miter;
        stroke-miterlimit: 10;
        fill: turquoise;
        fill-rule: nonzero;
        opacity: 1;
      "
      transform=" matrix(1 0 0 1 0 0) "
      stroke-linecap="round"
    />
    <path
      d="M 44.99 51.594 c -0.269 0 -0.527 -0.108 -0.715 -0.301 l -8.2 -8.389 c -0.386 -0.395 -0.378 -1.028 0.016 -1.415 c 0.396 -0.385 1.028 -0.378 1.415 0.016 l 7.485 7.657 l 7.485 -7.657 c 0.385 -0.394 1.021 -0.401 1.414 -0.016 c 0.395 0.386 0.402 1.02 0.016 1.415 l -8.2 8.389 C 45.517 51.485 45.259 51.594 44.99 51.594 z"
      style="
        stroke: none;
        stroke-width: 1;
        stroke-dasharray: none;
        stroke-linecap: butt;
        stroke-linejoin: miter;
        stroke-miterlimit: 10;
        fill: turquoise;
        fill-rule: nonzero;
        opacity: 1;
      "
      transform=" matrix(1 0 0 1 0 0) "
      stroke-linecap="round"
    />
    <path
      d="M 61.934 59.76 c -0.553 0 -1 -0.447 -1 -1 V 47.567 c 0 -1.766 -1.396 -3.283 -3.321 -3.606 l -4.568 -0.77 c -2.252 -0.379 -3.887 -2.213 -3.887 -4.36 l -0.029 -1.159 c -0.014 -0.552 0.423 -1.011 0.976 -1.024 c 0.576 -0.032 1.011 0.424 1.024 0.975 l 0.029 1.184 c 0 1.192 0.934 2.196 2.219 2.413 l 4.568 0.77 c 2.891 0.487 4.989 2.833 4.989 5.579 V 58.76 C 62.934 59.313 62.486 59.76 61.934 59.76 z"
      style="
        stroke: none;
        stroke-width: 1;
        stroke-dasharray: none;
        stroke-linecap: butt;
        stroke-linejoin: miter;
        stroke-miterlimit: 10;
        fill: turquoise;
        fill-rule: nonzero;
        opacity: 1;
      "
      transform=" matrix(1 0 0 1 0 0) "
      stroke-linecap="round"
    />
  </g>
</svg>
